<svg xmlns="http://www.w3.org/2000/svg" xmlns:xlink="http://www.w3.org/1999/xlink" viewBox="0 0 138.167 138.167"
     fill="#fff" fill-rule="evenodd" stroke="#000" stroke-linecap="round" stroke-linejoin="round">
	<use xlink:href="#A" x="2.083" y="2.083"/>
	<symbol id="A" overflow="visible">
		<g stroke="none" fill-rule="nonzero">
			<use xlink:href="#C" fill="#ea5a47"/>
			<use xlink:href="#D" fill="#f4aa41"/>
			<use xlink:href="#E" fill="#fcea2b"/>
			<use xlink:href="#F" fill="#b1cc33"/>
			<use xlink:href="#G" fill="#92d3f5"/>
			<use xlink:href="#H" fill="#b399c8"/>
		</g>
		<g fill="none" stroke-width="4.167">
			<use xlink:href="#C"/>
			<use xlink:href="#D"/>
			<use xlink:href="#E"/>
			<use xlink:href="#F"/>
			<use xlink:href="#G"/>
			<use xlink:href="#H"/>
		</g>
	</symbol>
	<defs>
		<path id="C" d="M133.333 0v14.729c-65.5 0-118.604 53.125-118.604 118.604H0C0 59.688 59.688 0 133.333 0z"/>
		<path id="D" d="M133.333 14.729v13.604c-58 0-105 47-105 105H14.729c0-65.5 53.125-118.604 118.604-118.604z"/>
		<path id="E" d="M133.333 28.333v12.5c-51.125 0-92.75 41.458-92.75 92.5h-12.25c0-58 47-105 105-105z"/>
		<path id="F"
		      d="M133.333 40.834v11.625c-44.875 0-81.25 36.208-81.25 80.833H40.625c0-51.042 41.625-92.5 92.75-92.5z"/>
		<path id="G"
		      d="M133.333 52.5v10.833C94.5 63.333 63 94.688 63 133.375H52.083c0-44.646 36.396-80.833 81.25-80.833z"/>
		<path id="H"
		      d="M133.334 63.292v9.729C100 73.021 73.021 100 73.021 133.334h-10c0-38.688 31.5-70.042 70.333-70.042z"/>
	</defs>
</svg>